<svg xmlns="http://www.w3.org/2000/svg" width="180" height="180" viewBox="0 0 180 180">
    <g fill="none" fill-rule="evenodd">
        <g fill="#C9C9C9" fill-rule="nonzero">
            <g>
                <path d="M83.42 52c34.876 0 63.378 27.532 65.316 62.228h13.606c1.7-7.558 8.4-13.2 16.406-13.2h22.43c9.29 0 16.822 7.599 16.822 16.972 0 9.373-7.532 16.971-16.822 16.971h-22.43c-7.67 0-14.14-5.177-16.165-12.257h-13.906C146.28 156.966 117.98 184 83.42 184 47.29 184 18 154.45 18 118s29.29-66 65.42-66zm0 10.371c-30.453 0-55.14 24.906-55.14 55.629s24.687 55.629 55.14 55.629c30.454 0 55.14-24.906 55.14-55.629s-24.686-55.629-55.14-55.629zm0 8.486c25.808 0 46.73 21.107 46.73 47.143s-20.922 47.143-46.73 47.143c-25.807 0-46.728-21.107-46.728-47.143s20.92-47.143 46.729-47.143zm0 10.372c-20.13 0-36.448 16.463-36.448 36.771s16.319 36.771 36.449 36.771 36.448-16.463 36.448-36.771-16.318-36.771-36.448-36.771zM201.179 111.4h-22.43c-3.613 0-6.542 2.955-6.542 6.6 0 3.645 2.929 6.6 6.542 6.6h22.43c3.613 0 6.542-2.955 6.542-6.6 0-3.645-2.93-6.6-6.542-6.6z" transform="translate(-285.000000, -328.000000) translate(0.000000, 228.000000) translate(264.000000, 79.000000) translate(118.000000, 118.000000) rotate(-315.000000) translate(-118.000000, -118.000000)"/>
            </g>
        </g>
    </g>
</svg>
