<?xml version="1.0" encoding="utf-8"?>
<!-- Generator: Adobe Illustrator 25.4.1, SVG Export Plug-In . SVG Version: 6.00 Build 0)  -->
<svg version="1.1" id="圖層_1" focusable="false" xmlns="http://www.w3.org/2000/svg" xmlns:xlink="http://www.w3.org/1999/xlink"
	 x="0px" y="0px" viewBox="0 0 512 512" style="enable-background:new 0 0 512 512;" xml:space="preserve">
<path d="M375.3,362.6l-61-61c-1.1-1.1-2.5-1.7-4-1.7h-4.9c16.2-17.5,26.1-40.9,26.1-66.7c0-54.3-44-98.3-98.3-98.3
	S135,179,135,233.3s44,98.3,98.3,98.3c25.8,0,49.1-9.9,66.7-26.1v4.8c0,1.5,0.6,2.9,1.7,4l61,61c2.2,2.2,5.8,2.2,8,0l4.7-4.7
	C377.6,368.4,377.6,364.8,375.3,362.6z M233.3,316.5c-46,0-83.2-37.2-83.2-83.2s37.2-83.2,83.2-83.2s83.2,37.2,83.2,83.2
	S279.3,316.5,233.3,316.5z"/>
</svg>
